<svg width="57" height="68" viewBox="0 0 57 68" fill="none" xmlns="http://www.w3.org/2000/svg">
  <path
    d="M49.0992 20.4349L26.9651 5.87329C25.2474 4.74322 23.013 4.77994 21.3333 5.96582L0.846484 20.4299C0.315668 20.8047 0 21.4139 0 22.0637V62C0 65.3137 2.68629 68 6 68H44C47.3137 68 50 65.3137 50 62V22.1058C50 21.4327 49.6615 20.8048 49.0992 20.4349Z"
    fill="#31B7E8" fill-opacity="0.5" />
  <path
    d="M55.0992 16.4349L32.9651 1.87329C31.2474 0.743224 29.013 0.779937 27.3333 1.96582L6.84648 16.4299C6.31567 16.8047 6 17.4139 6 18.0637V58C6 61.3137 8.68629 64 12 64H50C53.3137 64 56 61.3137 56 58V18.1058C56 17.4327 55.6615 16.8048 55.0992 16.4349Z"
    stroke="black" stroke-width="2" />
  <circle cx="31" cy="14" r="3" stroke="black" stroke-width="2" />
  <circle cx="37" cy="44" r="5" stroke="black" stroke-width="2" />
  <circle cx="22.5" cy="30.5" r="5.5" stroke="black" stroke-width="2" />
  <line x1="19.7234" y1="47.5111" x2="40.5432" y2="26.6912" stroke="black" stroke-width="2" stroke-linecap="round" />
</svg>