<svg width="74" height="68" viewBox="0 0 74 68" fill="none" xmlns="http://www.w3.org/2000/svg">
  <path fill-rule="evenodd" clip-rule="evenodd"
    d="M2 10.7857V8C2 6.34314 3.34315 5 5 5H40.7857C42.4426 5 43.7857 6.34315 43.7857 8V21.0714H52.1017C53.7384 21.0714 55.2716 21.8725 56.2062 23.2161L64.1045 34.5699C64.6875 35.4079 65 36.4043 65 37.4252V55.3571C65 57.014 63.6569 58.3571 62 58.3571H59.2143H58.5488C58.5638 58.5695 58.5714 58.7838 58.5714 59C58.5714 63.9706 54.542 68 49.5714 68C44.6009 68 40.5714 63.9706 40.5714 59C40.5714 58.7838 40.5791 58.5695 40.594 58.3571H25.1429H25.1203C25.1352 58.5695 25.1429 58.7838 25.1429 59C25.1429 63.9706 21.1134 68 16.1429 68C11.1723 68 7.14286 63.9706 7.14286 59C7.14286 58.7838 7.15048 58.5695 7.16546 58.3571H6C3.79086 58.3571 2 56.5663 2 54.3571V40.5714V40.3571V37.7857V10.7857Z"
    fill="#31B7E8" fill-opacity="0.5" />
  <path
    d="M7 7V4C7 2.34315 8.34315 1 10 1H47C48.6569 1 50 2.34315 50 4V38C50 39.6569 48.6569 41 47 41H10C8.34314 41 7 39.6569 7 38V35"
    stroke="black" stroke-width="2" stroke-linecap="round" />
  <circle cx="57.5" cy="56.5" r="8.5" stroke="black" stroke-width="2" />
  <circle cx="22.5" cy="56.5" r="8.5" stroke="black" stroke-width="2" />
  <path d="M1 14H15.4138M2.31034 21H20M3.62069 28H14.7586" stroke="black" stroke-width="2" stroke-linecap="round" />
  <path
    d="M7 38.1724V53C7 55.2091 8.79086 57 11 57H14.4082M31.2449 57H49.4286M66.9388 57H70C71.6569 57 73 55.6569 73 54V35.0356C73 34.0135 72.6867 33.0159 72.1024 32.1773L63.7167 20.1417C62.7817 18.7998 61.2497 18 59.6143 18H51.449"
    stroke="black" stroke-width="2" />
  <path d="M73 37H56" stroke="black" stroke-width="2" stroke-linecap="round" />
</svg>