<svg width="72" height="68" viewBox="0 0 72 68" fill="none" xmlns="http://www.w3.org/2000/svg">
  <path fill-rule="evenodd" clip-rule="evenodd"
    d="M14.9903 33.2496C17.6695 32.355 21.3859 30.5282 24.0739 27.5573C26.0729 25.3481 26.5263 22.2567 26.5263 19.2773V7.49525C26.5263 6.11689 27.6437 5 29.0221 5C36.1896 5 42 10.8104 42 17.9779V27.3509C42 27.8256 42.3848 28.2105 42.8596 28.2105H52.032C55.6008 28.2105 59.3986 28.9286 61.4948 31.8169C63.5351 34.6283 64.6581 38.71 61.8947 43.6842C63 46.2631 64.1052 52.5263 59.6842 56.9473C60.0526 59.5263 59.2421 64.9052 53.0526 65.7894H16.2631C15.3702 65.7894 14.5684 65.3993 14.0189 64.7803C12.6141 66.7304 10.3238 68 7.73684 68C3.4639 68 0 64.5361 0 60.2632V35.9474C0 31.6745 3.4639 28.2106 7.73684 28.2106C11.0609 28.2106 13.8953 30.3069 14.9903 33.2496Z"
    fill="#31B7E8" fill-opacity="0.5" />
  <path
    d="M31.0363 23.9282C27.6517 27.7394 22.6103 29.7259 20 30.3091V56C20 59.866 23.134 63 27 63H60.3617C66.6402 62.0982 67.4624 56.6121 67.0887 53.9818C71.5733 49.4727 70.4522 43.0848 69.331 40.4545C71.8128 35.963 71.2044 32.185 69.596 29.3878C67.3833 25.5397 62.5159 24.6727 58.077 24.6727H50.0269C49.5427 24.6727 49.1501 24.2802 49.1501 23.796V14.1646C49.1501 6.89398 43.2562 1 35.9856 1C34.5874 1 33.4539 2.13316 33.4539 3.53135V15.674C33.4539 18.6389 33.005 21.7114 31.0363 23.9282Z"
    stroke="black" stroke-width="2" />
</svg>