<svg width="65" height="68" viewBox="0 0 65 68" fill="none" xmlns="http://www.w3.org/2000/svg">
  <rect x="5" y="5" width="41" height="63" rx="20.5" fill="#31B7E8" fill-opacity="0.5" />
  <path
    d="M1 37.1223C1 30.2615 6.56178 24.6997 13.4226 24.6997H13.4551V49.5449H13.4226C6.56178 49.5449 1 43.9831 1 37.1223Z"
    stroke="black" stroke-width="2" />
  <path
    d="M63.0154 37.1223C63.0154 30.2615 57.4536 24.6997 50.5928 24.6997H50.5603V49.5449H50.5928C57.4536 49.5449 63.0154 43.9831 63.0154 37.1223Z"
    stroke="black" stroke-width="2" />
  <path fill-rule="evenodd" clip-rule="evenodd"
    d="M53.317 24.6213C53.3706 24.0129 53.3979 23.397 53.3979 22.7747C53.3979 11.3012 44.0968 2 32.6232 2C21.1497 2 11.8485 11.3012 11.8485 22.7747C11.8485 23.397 11.8759 24.0129 11.9295 24.6213H9.92229C9.87342 24.0122 9.84851 23.3964 9.84851 22.7747C9.84851 10.1966 20.0451 0 32.6232 0C45.2013 0 55.3979 10.1966 55.3979 22.7747C55.3979 23.3964 55.373 24.0122 55.3241 24.6213H53.317Z"
    fill="black" />
  <path d="M55.7441 48.48C55.9591 52.6187 53.1647 60.6705 40.2678 59.7675" stroke="black" stroke-width="2" />
  <rect x="27" y="56.7075" width="13.4876" height="7.29256" rx="3.64628" stroke="black" stroke-width="2" />
</svg>